<svg width="20" height="20" viewBox="0 0 20 20" fill="none" xmlns="http://www.w3.org/2000/svg">
<path d="M11.8457 2.5C8.74512 2.5 6.2207 5.02441 6.2207 8.125C6.2207 9.44824 6.69922 10.6543 7.4707 11.6162L1.25 17.8369L2.12891 18.7256L8.35449 12.5C9.31641 13.2715 10.5225 13.75 11.8457 13.75C14.9463 13.75 17.4707 11.2256 17.4707 8.125C17.4707 5.02441 14.9463 2.5 11.8457 2.5ZM11.8457 3.75C14.2676 3.75 16.2207 5.70312 16.2207 8.125C16.2207 10.5469 14.2676 12.5 11.8457 12.5C9.42383 12.5 7.4707 10.5469 7.4707 8.125C7.4707 5.70312 9.42383 3.75 11.8457 3.75Z" fill="white"/>
</svg>
