<svg width="213" height="194" viewBox="0 0 213 194" fill="none" xmlns="http://www.w3.org/2000/svg">
<path opacity="0.3" d="M133.205 116.196C147.977 124.726 147.977 138.555 133.205 147.09C118.433 155.62 94.4803 155.62 79.7074 147.09C64.9358 138.555 64.9358 124.726 79.7074 116.196C94.4803 107.666 118.433 107.666 133.205 116.196Z" fill="#0089FF"/>
<path opacity="0.5" d="M125.357 120.722C135.787 126.752 135.787 136.521 125.357 142.55C114.921 148.574 97.9969 148.574 87.561 142.55C77.125 136.521 77.125 126.752 87.561 120.722C97.9969 114.698 114.921 114.698 125.357 120.722Z" fill="#0089FF"/>
<mask id="path-3-inside-1_6_2" fill="white">
<path fill-rule="evenodd" clip-rule="evenodd" d="M31.1793 88.169C72.753 64.1611 140.154 64.1611 181.726 88.169C223.3 112.177 223.3 151.104 181.726 175.106C140.154 199.114 72.753 199.114 31.1793 175.106C-10.3931 151.104 -10.3931 112.177 31.1793 88.169ZM31.7153 174.796C72.9906 198.633 139.916 198.633 181.19 174.796C222.471 150.965 222.471 112.315 181.19 88.4788C139.916 64.6424 72.9906 64.6424 31.7153 88.4788C-9.55864 112.315 -9.55864 150.965 31.7153 174.796Z"/>
</mask>
<path d="M181.726 88.169L181.476 88.602V88.602L181.726 88.169ZM31.1793 88.169L30.9292 87.736L30.9292 87.736L31.1793 88.169ZM181.726 175.106L181.476 174.673L181.476 174.673L181.726 175.106ZM31.1793 175.106L31.4293 174.673L31.4293 174.673L31.1793 175.106ZM181.19 174.796L180.94 174.363L180.94 174.363L181.19 174.796ZM31.7153 174.796L31.9654 174.363L31.9653 174.363L31.7153 174.796ZM181.19 88.4788L180.94 88.9117L180.94 88.9118L181.19 88.4788ZM31.7153 88.4788L31.4653 88.0458L31.4653 88.0458L31.7153 88.4788ZM181.976 87.736C161.096 75.6778 133.761 69.6631 106.453 69.6631C79.1452 69.6631 51.81 75.6778 30.9292 87.736L31.4293 88.602C52.1223 76.6523 79.2743 70.6631 106.453 70.6631C133.632 70.6631 160.784 76.6523 181.476 88.602L181.976 87.736ZM181.976 175.539C202.854 163.485 213.407 147.614 213.407 131.64C213.407 115.665 202.854 99.7925 181.976 87.736L181.476 88.602C202.172 100.553 212.407 116.148 212.407 131.64C212.407 147.131 202.172 162.724 181.476 174.673L181.976 175.539ZM30.9292 175.539C51.81 187.597 79.1452 193.612 106.453 193.612C133.761 193.612 161.096 187.597 181.976 175.539L181.476 174.673C160.784 186.623 133.632 192.612 106.453 192.612C79.2743 192.612 52.1223 186.623 31.4293 174.673L30.9292 175.539ZM30.9292 87.736C10.0519 99.7925 -0.5 115.665 -0.5 131.64C-0.5 147.614 10.0519 163.485 30.9293 175.539L31.4293 174.673C10.7342 162.724 0.5 147.131 0.5 131.64C0.5 116.148 10.7343 100.553 31.4293 88.602L30.9292 87.736ZM180.94 174.363C160.397 186.227 133.439 192.173 106.453 192.173C79.4677 192.173 52.5091 186.227 31.9654 174.363L31.4653 175.229C52.1968 187.202 79.3387 193.173 106.453 193.173C133.568 193.173 160.709 187.202 181.44 175.229L180.94 174.363ZM180.94 88.9118C201.489 100.777 211.651 116.26 211.651 131.64C211.651 147.019 201.489 162.5 180.94 174.363L181.44 175.229C202.172 163.261 212.651 147.502 212.651 131.64C212.651 115.777 202.172 100.017 181.44 88.0458L180.94 88.9118ZM31.9654 88.9117C52.5091 77.0478 79.4677 71.1015 106.453 71.1015C133.439 71.1015 160.397 77.0478 180.94 88.9117L181.44 88.0458C160.709 76.0734 133.568 70.1015 106.453 70.1015C79.3387 70.1015 52.1968 76.0734 31.4653 88.0458L31.9654 88.9117ZM31.9653 174.363C11.4195 162.5 1.25985 147.019 1.25985 131.64C1.25985 116.26 11.4195 100.777 31.9654 88.9117L31.4653 88.0458C10.7371 100.017 0.259846 115.777 0.259846 131.64C0.259846 147.502 10.7372 163.261 31.4653 175.229L31.9653 174.363Z" fill="#0089FF" mask="url(#path-3-inside-1_6_2)"/>
<path opacity="0.1" d="M174.609 92.2797C212.249 114.014 212.249 149.262 174.609 170.997C136.967 192.736 75.9375 192.736 38.297 170.997C0.655218 149.262 0.655218 114.014 38.297 92.2797C75.9375 70.5454 136.967 70.5399 174.609 92.2797Z" fill="#0089FF"/>
<path opacity="0.1" d="M169.185 95.4099C203.834 115.418 203.834 147.857 169.185 167.865C134.541 187.873 78.3672 187.873 43.7243 167.865C9.08133 147.857 9.08133 115.418 43.7243 95.4099C78.3672 75.4071 134.541 75.4071 169.185 95.4099Z" fill="#0089FF"/>
<path opacity="0.15" d="M159.869 100.796C189.363 117.828 189.363 145.448 159.869 162.48C130.369 179.513 82.5464 179.513 53.0519 162.48C23.552 145.448 23.552 117.828 53.0519 100.796C82.5464 83.7636 130.369 83.758 159.869 100.796Z" fill="#0089FF"/>
<path opacity="0.2" d="M151.88 105.407C176.967 119.895 176.967 143.383 151.88 157.87C126.794 172.358 86.1166 172.358 61.0292 157.87C35.9432 143.383 35.9432 119.895 61.0292 105.407C86.1166 90.9196 126.794 90.9196 151.88 105.407Z" fill="#0089FF"/>
<path opacity="0.25" d="M143.803 110.068C164.426 121.978 164.426 141.294 143.803 153.204C123.174 165.114 89.7315 165.114 69.108 153.204C48.4778 141.294 48.4778 121.978 69.108 110.068C89.7315 98.1579 123.174 98.1579 143.803 110.068Z" fill="#0089FF"/>
<path d="M167.506 121.268C168.3 95.1859 122.996 78.1907 83.1319 87.813C65.5992 92.0527 44.9281 103.341 45.9805 121.418C45.9497 120.997 45.8969 120.576 45.8969 120.149C45.8661 129.591 45.596 131.51 46.7688 135.473C51.0845 150.026 69.0752 158.758 83.9862 162.259L84.0347 162.271C121.095 170.955 163.28 156.786 167.224 133.139C167.62 130.77 167.512 129.736 167.537 120.51C167.537 120.763 167.512 121.015 167.506 121.268Z" fill="url(#paint0_linear_6_2)"/>
<path d="M143.213 148.548C110.848 162.609 59.2058 154.809 47.8119 128.979C46.4893 126.008 45.889 122.911 45.8948 120.151V120.157V120.151C45.8699 128.528 45.7495 130.122 46.0989 132.491C48.449 148.476 67.7917 158.459 83.9842 162.26L84.0326 162.272C123.583 171.539 167.432 154.803 167.51 129.785L167.535 120.512C167.51 129.328 161.563 140.58 143.213 148.548Z" fill="url(#paint1_linear_6_2)"/>
<path d="M163.232 44.8453L163.19 56.6987L162.992 118.112C162.986 122.286 161.597 126.459 158.832 130.381C155.993 134.392 151.706 138.144 145.97 141.362C139.531 144.97 131.985 147.514 123.97 148.969C104.309 152.59 81.894 149.751 66.5323 140.556C55.8899 134.199 50.6055 125.984 50.6348 117.794L50.8213 58.0518L50.8638 44.5326C50.8521 49.4701 91.5572 51.641 123.97 50.7449C125.246 50.7148 126.514 50.6668 127.759 50.6246C147.473 49.915 163.221 48.0147 163.232 44.8453Z" fill="url(#paint2_linear_6_2)"/>
<path d="M158.831 50.6248V130.381C155.992 134.392 151.706 138.145 145.969 141.362C139.531 144.97 131.985 147.514 123.97 148.97V50.6248H158.831Z" fill="#CFCAC4"/>
<path d="M163.232 44.8453L163.189 56.6987C156.396 77.1398 118.631 88.9029 85.2434 81.0789L85.2067 81.0669C71.9133 77.9397 56.0159 70.4343 50.8209 58.0518L50.8635 44.5326C50.8459 52.7295 163.214 53.3129 163.232 44.8453Z" fill="url(#paint3_linear_6_2)"/>
<path d="M163.189 65.4729V70.9034C162.271 73.6638 160.785 76.2737 158.831 78.6853C151.892 87.2251 138.995 93.4614 123.97 96.1917C111.776 98.4048 98.1816 98.3146 85.2434 95.2776L85.2067 95.2716C71.9133 92.1444 56.0159 84.633 50.8209 72.2565L50.8459 66.8681C56.0467 79.2206 71.9192 86.7138 85.2067 89.8411L85.2434 89.847C98.1816 92.8841 111.776 92.9743 123.97 90.7612C138.995 88.0308 151.892 81.7945 158.831 73.2548C160.785 70.8432 162.271 68.2333 163.189 65.4729Z" fill="url(#paint4_linear_6_2)"/>
<path d="M141.258 68.095C110.63 81.3977 61.7549 74.0187 50.9687 49.5724C49.7239 46.7579 49.1529 43.8292 49.1588 41.2191C49.1338 49.1454 49.0193 46.2167 49.351 48.4598C51.5749 63.5846 69.8768 73.0325 85.2033 76.6348L85.2517 76.6468C122.686 85.415 164.184 69.5805 164.256 45.8979L164.281 41.5619C164.256 49.9031 158.63 60.5477 141.258 68.095Z" fill="#9B9893"/>
<path d="M156.652 24.9017C154.613 22.839 152.28 20.9747 149.701 19.2727C143.465 15.1893 135.752 12.1824 127.389 10.3421C107.042 5.78972 82.7571 8.00876 65.8673 17.8114C51.9853 25.888 44.6971 38.7216 52.0513 51.7055C61.3579 68.1474 87.0375 74.5642 106.038 74.7446C121.736 74.883 140.665 71.0221 153.068 61.2616C166.566 50.6771 168.028 36.3882 156.652 24.9017Z" fill="#CFCAC4"/>
<path d="M147.362 20.4752C127.28 7.32896 90.7654 5.93369 68.0921 19.0981C54.9601 26.7297 48.0698 38.8657 55.0262 51.1459C63.8293 66.6978 88.1085 72.7597 106.073 72.9342C120.918 73.0604 138.817 69.4101 150.542 60.1848C165.255 48.6442 165.099 32.1963 147.362 20.4752Z" fill="url(#paint5_linear_6_2)"/>
<path d="M163.127 31.0436C162.07 20.3028 152.545 10.8431 136.985 5.09374C136.769 5.01556 136.552 4.93738 136.336 4.86525C127.504 1.67791 117.294 0 106.808 0C83.07 0 62.2375 8.38937 53.7471 21.3673C50.9507 25.7393 49.8204 30.334 50.296 34.8624C50.4516 36.6064 50.8729 38.3444 51.5349 40.0584C53.1584 44.3402 56.2542 48.4597 60.7519 52.1583C71.4956 60.8663 88.2532 65.8639 106.73 65.8639C108.064 65.8639 109.381 65.8338 110.692 65.7737C111.059 65.7737 111.426 65.7496 111.781 65.7196C121.767 65.2204 128.477 63.308 129.469 63.1095V62.015C124.997 63.326 117.564 64.3845 111.781 64.6912L111.558 64.7032C111.455 64.7032 111.335 64.7152 111.239 64.7152C111.059 64.7333 110.872 64.7453 110.692 64.7453C109.369 64.7994 108.047 64.8294 106.718 64.8294C94.8309 64.8294 83.5148 62.6945 73.9851 58.6593C73.7694 58.5871 73.5639 58.5029 73.3422 58.3886C68.3087 56.2116 56.1941 50.0293 52.4127 39.3728C51.8887 37.8934 51.5349 36.4079 51.372 34.9045C51.1856 33.1605 51.234 31.4225 51.5525 29.6905C51.9547 27.3631 52.8208 25.0718 54.114 22.8407C59.5673 13.5432 70.606 8.38937 76.6846 6.13417C85.2704 2.85057 95.9069 1.0585 106.639 1.0585C121.544 1.0585 135.524 4.39019 145.998 10.4762C151.428 13.6334 160.134 20.0803 161.823 29.6183C162.033 30.6888 162.129 31.7893 162.129 32.932C162.129 33.5995 162.094 34.249 162.01 34.9045C161.865 36.2516 161.577 37.5866 161.132 38.8977C160.855 39.7396 160.518 40.5816 160.121 41.4055C157.831 46.2226 153.591 50.6909 147.765 54.3353C147.441 54.5397 147.116 54.7382 146.779 54.9367L146.678 54.9968C146.46 55.1351 146.233 55.2674 145.998 55.4058C143.364 56.9393 140.508 58.2924 137.453 59.4711C137.088 59.6094 136.721 59.7538 136.354 59.8741V61.0107C136.721 60.8724 137.088 60.7461 137.453 60.5957C140.706 59.3689 143.749 57.9436 146.563 56.3259L146.678 56.2417L146.732 56.2056C146.827 56.1575 146.93 56.1034 147.008 56.0552C147.266 55.9049 147.519 55.7485 147.765 55.5922C153.37 52.1462 157.542 48.153 160.121 43.8171C160.53 43.1435 160.897 42.4519 161.21 41.7603C161.42 41.3273 161.606 40.8883 161.787 40.4433C162.496 38.6752 162.929 36.853 163.121 35.0007C163.261 33.6958 163.261 32.3787 163.127 31.0436Z" fill="url(#paint6_linear_6_2)"/>
<path d="M163.129 35.0548L163.117 35.0066C162.936 33.1664 162.503 31.3683 161.825 29.6243C158.608 21.1568 149.866 13.862 136.993 9.11095C136.777 9.02075 136.548 8.9366 136.332 8.86438C127.505 5.68907 117.296 4.01721 106.809 4.01721C83.066 4.01721 62.2319 12.4006 53.7489 25.3845C52.8476 26.8037 52.1136 28.2351 51.5543 29.6964C50.8982 31.3984 50.4666 33.1364 50.2919 34.8624C49.4978 42.3376 53.081 49.867 60.7479 56.1695C71.4974 64.8776 88.255 69.8751 106.732 69.8751C114.23 69.8751 121.511 69.0392 128.377 67.3914L128.636 67.3312L129.308 67.1688L129.471 67.1267V66.0142C129.374 66.0443 129.279 66.0743 129.182 66.0984C128.966 66.1645 128.749 66.2186 128.527 66.2668L128.377 66.3088C128.269 66.3389 128.16 66.369 127.997 66.4051C121.373 67.9927 114.012 68.8407 106.72 68.8407C94.8151 68.8407 83.5107 66.7058 73.9928 62.6765C73.777 62.5923 73.5598 62.5021 73.344 62.3998C68.3105 60.2348 56.19 54.0345 52.4145 43.378C52.0167 42.2774 51.7231 41.1769 51.5308 40.0584C51.2417 38.3444 51.1874 36.6184 51.3797 34.9044C51.6806 32.1681 52.5951 29.4559 54.1158 26.8519C59.5691 17.5604 70.6019 12.3886 76.6923 10.1454C85.2722 6.86778 95.9146 5.05764 106.635 5.05764C121.546 5.05764 135.526 8.4074 146.006 14.4754C151.663 17.7709 160.911 24.6689 162.012 34.9044C162.095 35.578 162.125 36.2515 162.125 36.9431C162.125 38.1219 162.012 39.2826 161.783 40.4493C160.441 47.4073 155.127 54.0105 146.691 59.008C146.468 59.1403 146.24 59.2846 146.006 59.417C143.366 60.9505 140.51 62.3036 137.455 63.4703C137.089 63.6266 136.723 63.759 136.356 63.8793V65.0219C136.723 64.8896 137.089 64.7573 137.455 64.6129C140.715 63.3921 143.757 61.9608 146.565 60.3251L146.734 60.2228C146.829 60.1747 146.92 60.1206 147.004 60.0604C158.332 53.3489 164.061 44.4605 163.129 35.0548Z" fill="url(#paint7_linear_6_2)"/>
<path d="M106.714 9.38177C106.407 9.38177 106.167 9.14722 106.167 8.84651V0.012085H107.254V8.84651C107.254 9.14116 107.008 9.38177 106.714 9.38177Z" fill="url(#paint8_linear_6_2)"/>
<path d="M111.783 64.6912V73.694C111.783 73.9946 111.548 74.2232 111.242 74.2232C110.947 74.2232 110.694 73.9826 110.694 73.694V64.7453C110.875 64.7453 111.061 64.7333 111.242 64.7152C111.337 64.7152 111.457 64.7032 111.56 64.7032L111.783 64.6912Z" fill="url(#paint9_linear_6_2)"/>
<path d="M129.472 62.0029V70.741C129.472 71.0357 129.214 71.2823 128.924 71.2823C128.618 71.2823 128.371 71.0357 128.371 70.741V62.3096C128.606 62.2495 129.093 62.1172 129.472 62.0029Z" fill="url(#paint10_linear_6_2)"/>
<path d="M147.767 54.3353V63.6267C147.767 63.9094 147.52 64.162 147.214 64.162C146.92 64.162 146.679 63.9094 146.679 63.6267V54.9969C146.679 54.9969 147.274 54.6541 147.767 54.3353Z" fill="url(#paint11_linear_6_2)"/>
<path d="M137.455 59.4651V68.3115C137.455 68.6002 137.203 68.8407 136.903 68.8407C136.602 68.8407 136.356 68.6002 136.356 68.3115V59.8741C136.723 59.7538 137.09 59.6094 137.455 59.4651Z" fill="url(#paint12_linear_6_2)"/>
<path d="M161.212 38.9097V50.3661C161.212 50.6548 160.966 50.8894 160.671 50.8894C160.364 50.8894 160.123 50.6668 160.123 50.3661V41.4055C160.521 40.5816 160.857 39.7396 161.135 38.8977L161.212 38.9097Z" fill="url(#paint13_linear_6_2)"/>
<path d="M158.284 29.3597C157.989 29.3597 157.742 29.1192 157.742 28.8305V18.7452L158.128 19.2203C158.356 19.503 158.585 19.8036 158.789 20.0923L158.832 20.1465V28.8305C158.832 29.1252 158.591 29.3597 158.284 29.3597Z" fill="url(#paint14_linear_6_2)"/>
<path d="M149.187 20.5134C148.88 20.5134 148.639 20.2788 148.639 19.9841V10.837L148.975 11.0475C149.204 11.1919 149.422 11.3422 149.643 11.4986L149.727 11.5588V19.9841C149.727 20.2788 149.488 20.5134 149.187 20.5134Z" fill="url(#paint15_linear_6_2)"/>
<path d="M136.585 14.2949C136.284 14.2949 136.043 14.0543 136.043 13.7657V4.76294L136.325 4.85911C136.548 4.93133 136.777 5.01547 136.993 5.09971L137.125 5.1478V13.7657C137.125 14.0543 136.884 14.2949 136.585 14.2949Z" fill="url(#paint16_linear_6_2)"/>
<path d="M121.644 10.6445C121.343 10.6445 121.102 10.404 121.102 10.1093V1.08252L121.348 1.11262C121.577 1.14263 121.793 1.17869 122.011 1.22081L122.185 1.25091V10.1093C122.185 10.41 121.95 10.6445 121.644 10.6445Z" fill="url(#paint17_linear_6_2)"/>
<path d="M90.2459 10.6446C89.945 10.6446 89.7042 10.41 89.7042 10.1093V1.51549L90.7861 1.31104V10.1093C90.7861 10.404 90.5453 10.6446 90.2459 10.6446Z" fill="url(#paint18_linear_6_2)"/>
<path d="M76.9385 14.295C76.6449 14.295 76.3983 14.0545 76.3983 13.7658V5.12389L76.5246 5.06975C76.7462 4.97358 76.9811 4.88934 77.2027 4.82318L77.4802 4.745V13.7658C77.4802 14.0545 77.2394 14.295 76.9385 14.295Z" fill="url(#paint19_linear_6_2)"/>
<path d="M64.7587 20.5133C64.4636 20.5133 64.217 20.2727 64.217 19.984V11.1918L64.3081 11.1317C64.5238 10.9874 64.7396 10.843 64.9686 10.6987L65.3048 10.4882V19.984C65.3048 20.2788 65.0655 20.5133 64.7587 20.5133Z" fill="url(#paint20_linear_6_2)"/>
<path d="M54.2547 30.4903C53.9596 30.4903 53.713 30.2497 53.713 29.9551V21.4214L53.7497 21.3733C53.9728 21.0305 54.1827 20.7058 54.4044 20.393L54.8022 19.8337V29.9551C54.8022 30.2558 54.5615 30.4903 54.2547 30.4903Z" fill="url(#paint21_linear_6_2)"/>
<path d="M51.8842 48.3334C51.5833 48.3334 51.3441 48.0929 51.3441 47.8042V37.2018L51.7698 37.1597C51.9209 37.8573 52.1367 38.597 52.4142 39.3728L52.4259 47.8042C52.4259 48.0929 52.1793 48.3334 51.8842 48.3334Z" fill="url(#paint22_linear_6_2)"/>
<path d="M60.5676 60.1026C60.2608 60.1026 60.0142 59.8681 60.0142 59.5734V50.1075L60.3812 50.4323C60.5911 50.6247 60.8142 50.8112 61.0359 50.9916L61.1078 51.0517V59.5734C61.1078 59.8681 60.8685 60.1026 60.5676 60.1026Z" fill="url(#paint23_linear_6_2)"/>
<path d="M73.5851 68.0047C73.2841 68.0047 73.0434 67.7702 73.0434 67.4755V58.2443L73.3561 58.3946C73.566 58.4908 73.7715 58.581 73.9931 58.6652L74.1311 58.7133V67.4755C74.1311 67.7702 73.8845 68.0047 73.5851 68.0047Z" fill="url(#paint24_linear_6_2)"/>
<path d="M90.2459 72.5512C89.945 72.5512 89.7042 72.3167 89.7042 72.022V63.2959L90.7861 63.5003V72.022C90.7861 72.3106 90.5453 72.5512 90.2459 72.5512Z" fill="url(#paint25_linear_6_2)"/>
<path d="M131.57 65.8038V149.908C131.57 150.202 131.31 150.455 131.023 150.455C130.716 150.455 130.469 150.202 130.469 149.908V66.0986L130.625 66.0565C130.848 66.0084 131.064 65.9482 131.281 65.8881L131.57 65.8038Z" fill="url(#paint26_linear_6_2)"/>
<path d="M139.55 69.0272V70.1847L138.452 70.5311L131.567 72.7572L130.469 73.1034V71.9557L131.567 71.6095L138.452 69.3834L139.55 69.0272Z" fill="url(#paint27_linear_6_2)"/>
<path d="M139.55 74.9448V76.1023L138.452 76.4487L131.567 78.6748L130.469 79.0211V77.8733L131.567 77.5271L138.452 75.301L139.55 74.9448Z" fill="url(#paint28_linear_6_2)"/>
<path d="M139.55 80.8624V82.0199L138.452 82.3664L131.567 84.5924L130.469 84.9387V83.791L131.567 83.4447L138.452 81.2187L139.55 80.8624Z" fill="url(#paint29_linear_6_2)"/>
<path d="M139.55 86.774V87.9317L138.452 88.278L131.567 90.5041L130.469 90.8503V89.7026L131.567 89.3564L138.452 87.1303L139.55 86.774Z" fill="url(#paint30_linear_6_2)"/>
<path d="M139.55 92.6918V93.8493L138.452 94.1956L131.567 96.4217L130.469 96.7679V95.6202L131.567 95.274L138.452 93.0479L139.55 92.6918Z" fill="url(#paint31_linear_6_2)"/>
<path d="M139.55 98.6093V99.7668L138.452 100.113L131.567 102.339L130.469 102.686V101.538L131.567 101.192L138.452 98.9654L139.55 98.6093Z" fill="url(#paint32_linear_6_2)"/>
<path d="M139.55 104.527V105.685L138.452 106.031L131.567 108.257L130.469 108.603V107.456L131.567 107.109L138.452 104.883L139.55 104.527Z" fill="url(#paint33_linear_6_2)"/>
<path d="M139.55 110.445V111.602L138.452 111.948L131.567 114.174L130.469 114.521V113.373L131.567 113.027L138.452 110.801L139.55 110.445Z" fill="url(#paint34_linear_6_2)"/>
<path d="M139.55 116.356V117.514L138.452 117.86L131.567 120.086L130.469 120.432V119.285L131.567 118.938L138.452 116.712L139.55 116.356Z" fill="url(#paint35_linear_6_2)"/>
<path d="M139.55 122.274V123.432L138.452 123.778L131.567 126.004L130.469 126.35V125.202L131.567 124.856L138.452 122.63L139.55 122.274Z" fill="url(#paint36_linear_6_2)"/>
<path d="M139.55 128.192V129.349L138.452 129.695L131.567 131.921L130.469 132.268V131.12L131.567 130.774L138.452 128.548L139.55 128.192Z" fill="url(#paint37_linear_6_2)"/>
<path d="M139.55 134.109V135.267L138.452 135.613L131.567 137.839L130.469 138.185V137.038L131.567 136.692L138.452 134.465L139.55 134.109Z" fill="url(#paint38_linear_6_2)"/>
<path d="M139.55 140.027V141.184L138.452 141.531L131.567 143.757L130.469 144.103V142.955L131.567 142.609L138.452 140.383L139.55 140.027Z" fill="url(#paint39_linear_6_2)"/>
<path d="M139.549 63.2639C139.537 63.9315 139.506 64.9598 139.248 65.008C138.995 65.05 138.653 64.2141 138.454 63.6729C138.527 62.4881 138.327 61.4116 137.455 60.5938C137.426 60.4735 137.409 60.3231 137.403 60.1548C137.397 59.9263 137.42 59.6195 137.455 59.4692C139.044 59.1204 139.591 61.5199 139.549 63.2639Z" fill="url(#paint40_linear_6_2)"/>
<path d="M130.471 62.1652C131.397 62.7125 131.595 64.5768 131.572 65.6893C131.552 66.3509 131.529 67.3852 131.265 67.4274C131.018 67.4695 130.669 66.6335 130.471 66.0983C130.548 64.9136 130.35 63.8371 129.472 63.0192C129.449 62.8929 129.424 62.7425 129.424 62.5741C129.418 62.3456 129.443 62.1532 129.472 62.0029C129.593 61.9728 129.809 61.9427 130.061 61.9968C130.061 61.9968 130.272 62.0449 130.471 62.1652Z" fill="url(#paint41_linear_6_2)"/>
<path d="M139.549 63.2659V147.484C139.549 147.773 139.302 148.007 139.007 148.007C138.701 148.007 138.454 147.773 138.454 147.484V63.6749C138.821 63.5546 139.182 63.4102 139.549 63.2659Z" fill="url(#paint42_linear_6_2)"/>
<path d="M141.269 21.2245C126.183 11.3497 98.7552 10.3093 81.7274 20.1901C71.866 25.9273 66.6901 35.0383 71.9144 44.2635C78.5288 55.9425 96.7647 60.501 110.256 60.6273C121.404 60.7235 134.848 57.9812 143.656 51.0532C154.708 42.3872 154.587 30.0348 141.269 21.2245Z" fill="#FFFBF2"/>
<path d="M118.817 25.0621L130.177 31.6706L140.124 25.989V24.5354L128.764 17.9272L118.817 23.6087V25.0621Z" fill="#9B9893"/>
<path d="M118.817 23.6087L130.177 30.217L140.124 24.5354L128.764 17.9272L118.817 23.6087Z" fill="#E6E2D9"/>
<path d="M136.335 24.5175L128.757 20.1104L122.611 23.6208L130.189 28.028L136.335 24.5175Z" fill="#9B9893"/>
<path d="M134.43 25.6038L128.747 22.2993L124.505 24.7265L130.187 28.031L134.43 25.6038Z" fill="#727272"/>
<path d="M118.817 23.6044V25.0577L130.177 31.6662V30.2126L118.817 23.6044Z" fill="#CFCAC4"/>
<path d="M94.9894 24.4854C91.3049 22.3566 85.3394 22.3566 81.6784 24.4854C78.0101 26.6144 78.035 30.0723 81.721 32.2012C85.4127 34.3302 91.371 34.3302 95.0378 32.2012C98.7003 30.0723 98.6812 26.6144 94.9894 24.4854Z" fill="url(#paint43_linear_6_2)"/>
<path d="M94.5094 27.6521C94.5989 24.6572 89.3981 22.7027 84.8167 23.8092C82.8028 24.2964 80.4277 25.5954 80.5539 27.6702C80.5481 27.622 80.5422 27.5739 80.5422 27.5259C80.5363 28.6083 80.5055 28.8308 80.6435 29.2819C81.1367 30.9537 83.205 31.9581 84.9136 32.361H84.9195C89.1764 33.3593 94.022 31.7295 94.4727 29.0173C94.5211 28.7406 94.5094 28.6264 94.5094 27.5679V27.6521Z" fill="#9B9893"/>
<path d="M96.1993 24.9934C96.3138 21.2708 89.8491 18.8472 84.1624 20.2244C81.6611 20.8258 78.715 22.4375 78.8647 25.0174C78.8588 24.9573 78.853 24.8912 78.853 24.8311C78.8471 26.1782 78.8104 26.4547 78.9792 27.0201C79.5928 29.0949 82.1602 30.3397 84.2887 30.8389H84.2945C89.579 32.0777 95.5916 30.057 96.1567 26.6833C96.211 26.3465 96.1993 26.2022 96.1993 24.8851V24.9934Z" fill="#787A7C"/>
<path d="M93.159 21.2816C90.0265 19.4714 84.9637 19.4714 81.8502 21.2816C78.7353 23.0857 78.7529 26.0205 81.8855 27.8307C85.0239 29.6408 90.0867 29.6408 93.2016 27.8307C96.3106 26.0205 96.2974 23.0857 93.159 21.2816Z" fill="url(#paint44_linear_6_2)"/>
<path d="M92.7279 28.8846C88.1172 30.8872 80.7512 29.7746 79.1218 26.0942C78.9354 25.6672 78.8518 25.2282 78.8518 24.8313V24.8373V24.8313C78.8459 26.028 78.8327 26.2566 78.8811 26.5934C79.2187 28.8726 81.9725 30.2979 84.2874 30.8391H84.2933C89.933 32.1622 96.1863 29.7746 96.1981 26.2084V24.8853C96.1981 26.1422 95.3496 27.7479 92.7279 28.8846Z" fill="url(#paint45_linear_6_2)"/>
<path fill-rule="evenodd" clip-rule="evenodd" d="M94.0066 21.5296C94.397 21.7822 94.7464 22.0649 95.0517 22.3776C96.7662 24.1036 96.549 26.2565 94.5115 27.8562C92.6414 29.3236 89.7907 29.9069 87.4289 29.8889C84.5606 29.8588 80.6941 28.8905 79.2937 26.4128C78.181 24.4583 79.282 22.5219 81.3737 21.3071C83.9176 19.8277 87.5786 19.4969 90.6451 20.1825C91.9016 20.4592 93.0686 20.9102 94.0066 21.5296ZM94.2465 27.0796C95.6894 25.7987 96.0138 24.0607 94.6854 22.5091C92.9591 20.4885 89.4846 19.8088 86.8086 19.9412C80.3321 20.2659 77.3082 24.6621 81.3788 27.5066C84.8357 29.9181 91.3297 29.6897 94.2465 27.0796Z" fill="url(#paint46_linear_6_2)"/>
<defs>
<linearGradient id="paint0_linear_6_2" x1="88.6982" y1="55.5617" x2="72.6644" y2="124.594" gradientUnits="userSpaceOnUse">
<stop stop-color="#001E26"/>
<stop offset="1" stop-color="#90929B"/>
</linearGradient>
<linearGradient id="paint1_linear_6_2" x1="144.473" y1="77.431" x2="59.1245" y2="207.539" gradientUnits="userSpaceOnUse">
<stop stop-color="#90929B"/>
<stop offset="1" stop-color="#131822"/>
</linearGradient>
<linearGradient id="paint2_linear_6_2" x1="194.389" y1="15.9984" x2="21.1521" y2="15.9984" gradientUnits="userSpaceOnUse">
<stop stop-color="#F4F0E7"/>
<stop offset="0.000821821" stop-color="#F3EFE6"/>
<stop offset="0.283885" stop-color="#CFCAC4"/>
<stop offset="0.537644" stop-color="#DDD8D1"/>
<stop offset="1" stop-color="#F4F0E7"/>
</linearGradient>
<linearGradient id="paint3_linear_6_2" x1="-18.7672" y1="39.9171" x2="-16.3134" y2="125.186" gradientUnits="userSpaceOnUse">
<stop stop-color="#E6E2D9"/>
<stop offset="1" stop-color="#9B9893"/>
</linearGradient>
<linearGradient id="paint4_linear_6_2" x1="89.4024" y1="86.6742" x2="117.391" y2="74.9985" gradientUnits="userSpaceOnUse">
<stop stop-color="#90929B"/>
<stop offset="1" stop-color="#131822" stop-opacity="0.501961"/>
</linearGradient>
<linearGradient id="paint5_linear_6_2" x1="117.154" y1="-43.8029" x2="82.1147" y2="45.6577" gradientUnits="userSpaceOnUse">
<stop stop-color="#F4F0E7"/>
<stop offset="0.000821821" stop-color="#F3EFE6"/>
<stop offset="0.283885" stop-color="#CFCAC4"/>
<stop offset="0.537644" stop-color="#DDD8D1"/>
<stop offset="1" stop-color="#F4F0E7"/>
</linearGradient>
<linearGradient id="paint6_linear_6_2" x1="-46.5504" y1="55.3837" x2="-33.2161" y2="238.622" gradientUnits="userSpaceOnUse">
<stop stop-color="#9FA0A6"/>
<stop offset="1" stop-color="white"/>
</linearGradient>
<linearGradient id="paint7_linear_6_2" x1="-47.3965" y1="55.5588" x2="-34.0664" y2="238.797" gradientUnits="userSpaceOnUse">
<stop stop-color="#9FA0A6"/>
<stop offset="1" stop-color="white"/>
</linearGradient>
<linearGradient id="paint8_linear_6_2" x1="104.401" y1="210.26" x2="154.488" y2="213.41" gradientUnits="userSpaceOnUse">
<stop stop-color="#9FA0A6"/>
<stop offset="1" stop-color="white"/>
</linearGradient>
<linearGradient id="paint9_linear_6_2" x1="95.6264" y1="214.849" x2="145.371" y2="217.879" gradientUnits="userSpaceOnUse">
<stop stop-color="#9FA0A6"/>
<stop offset="1" stop-color="white"/>
</linearGradient>
<linearGradient id="paint10_linear_6_2" x1="112.712" y1="204.825" x2="163.286" y2="208.147" gradientUnits="userSpaceOnUse">
<stop stop-color="#9FA0A6"/>
<stop offset="1" stop-color="white"/>
</linearGradient>
<linearGradient id="paint11_linear_6_2" x1="132.446" y1="212.516" x2="181.535" y2="215.322" gradientUnits="userSpaceOnUse">
<stop stop-color="#9FA0A6"/>
<stop offset="1" stop-color="white"/>
</linearGradient>
<linearGradient id="paint12_linear_6_2" x1="120.976" y1="204.998" x2="171.287" y2="208.226" gradientUnits="userSpaceOnUse">
<stop stop-color="#9FA0A6"/>
<stop offset="1" stop-color="white"/>
</linearGradient>
<linearGradient id="paint13_linear_6_2" x1="150.038" y1="247.533" x2="195.833" y2="249.296" gradientUnits="userSpaceOnUse">
<stop stop-color="#9FA0A6"/>
<stop offset="1" stop-color="white"/>
</linearGradient>
<linearGradient id="paint14_linear_6_2" x1="150.822" y1="222.553" x2="198.496" y2="224.895" gradientUnits="userSpaceOnUse">
<stop stop-color="#9FA0A6"/>
<stop offset="1" stop-color="white"/>
</linearGradient>
<linearGradient id="paint15_linear_6_2" x1="143.017" y1="207.526" x2="192.418" y2="210.439" gradientUnits="userSpaceOnUse">
<stop stop-color="#9FA0A6"/>
<stop offset="1" stop-color="white"/>
</linearGradient>
<linearGradient id="paint16_linear_6_2" x1="132.166" y1="208.176" x2="181.768" y2="211.157" gradientUnits="userSpaceOnUse">
<stop stop-color="#9FA0A6"/>
<stop offset="1" stop-color="white"/>
</linearGradient>
<linearGradient id="paint17_linear_6_2" x1="118.675" y1="211.384" x2="168.239" y2="214.352" gradientUnits="userSpaceOnUse">
<stop stop-color="#9FA0A6"/>
<stop offset="1" stop-color="white"/>
</linearGradient>
<linearGradient id="paint18_linear_6_2" x1="88.414" y1="213.954" x2="138.467" y2="217.092" gradientUnits="userSpaceOnUse">
<stop stop-color="#9FA0A6"/>
<stop offset="1" stop-color="white"/>
</linearGradient>
<linearGradient id="paint19_linear_6_2" x1="75.2059" y1="220.733" x2="124.769" y2="223.701" gradientUnits="userSpaceOnUse">
<stop stop-color="#9FA0A6"/>
<stop offset="1" stop-color="white"/>
</linearGradient>
<linearGradient id="paint20_linear_6_2" x1="62.7702" y1="231.06" x2="111.466" y2="233.735" gradientUnits="userSpaceOnUse">
<stop stop-color="#9FA0A6"/>
<stop offset="1" stop-color="white"/>
</linearGradient>
<linearGradient id="paint21_linear_6_2" x1="51.32" y1="244.669" x2="98.9282" y2="246.989" gradientUnits="userSpaceOnUse">
<stop stop-color="#9FA0A6"/>
<stop offset="1" stop-color="white"/>
</linearGradient>
<linearGradient id="paint22_linear_6_2" x1="45.7036" y1="256.557" x2="92.4273" y2="258.601" gradientUnits="userSpaceOnUse">
<stop stop-color="#9FA0A6"/>
<stop offset="1" stop-color="white"/>
</linearGradient>
<linearGradient id="paint23_linear_6_2" x1="50.461" y1="232.182" x2="99.3195" y2="234.911" gradientUnits="userSpaceOnUse">
<stop stop-color="#9FA0A6"/>
<stop offset="1" stop-color="white"/>
</linearGradient>
<linearGradient id="paint24_linear_6_2" x1="61.1335" y1="226.617" x2="110.358" y2="229.47" gradientUnits="userSpaceOnUse">
<stop stop-color="#9FA0A6"/>
<stop offset="1" stop-color="white"/>
</linearGradient>
<linearGradient id="paint25_linear_6_2" x1="75.6106" y1="215.277" x2="125.849" y2="218.479" gradientUnits="userSpaceOnUse">
<stop stop-color="#9FA0A6"/>
<stop offset="1" stop-color="white"/>
</linearGradient>
<linearGradient id="paint26_linear_6_2" x1="115.796" y1="1537.11" x2="154.819" y2="1537.14" gradientUnits="userSpaceOnUse">
<stop stop-color="#9FA0A6"/>
<stop offset="1" stop-color="white"/>
</linearGradient>
<linearGradient id="paint27_linear_6_2" x1="-73.859" y1="48.6391" x2="-65.9612" y2="231.502" gradientUnits="userSpaceOnUse">
<stop stop-color="#9FA0A6"/>
<stop offset="1" stop-color="white"/>
</linearGradient>
<linearGradient id="paint28_linear_6_2" x1="-75.0677" y1="48.8965" x2="-67.1696" y2="231.759" gradientUnits="userSpaceOnUse">
<stop stop-color="#9FA0A6"/>
<stop offset="1" stop-color="white"/>
</linearGradient>
<linearGradient id="paint29_linear_6_2" x1="-76.2809" y1="49.1535" x2="-68.3828" y2="232.017" gradientUnits="userSpaceOnUse">
<stop stop-color="#9FA0A6"/>
<stop offset="1" stop-color="white"/>
</linearGradient>
<linearGradient id="paint30_linear_6_2" x1="-77.4942" y1="49.4047" x2="-69.5961" y2="232.268" gradientUnits="userSpaceOnUse">
<stop stop-color="#9FA0A6"/>
<stop offset="1" stop-color="white"/>
</linearGradient>
<linearGradient id="paint31_linear_6_2" x1="-78.7119" y1="49.662" x2="-70.8142" y2="232.525" gradientUnits="userSpaceOnUse">
<stop stop-color="#9FA0A6"/>
<stop offset="1" stop-color="white"/>
</linearGradient>
<linearGradient id="paint32_linear_6_2" x1="-79.9206" y1="49.919" x2="-72.0224" y2="232.783" gradientUnits="userSpaceOnUse">
<stop stop-color="#9FA0A6"/>
<stop offset="1" stop-color="white"/>
</linearGradient>
<linearGradient id="paint33_linear_6_2" x1="-81.1339" y1="50.1764" x2="-73.2357" y2="233.039" gradientUnits="userSpaceOnUse">
<stop stop-color="#9FA0A6"/>
<stop offset="1" stop-color="white"/>
</linearGradient>
<linearGradient id="paint34_linear_6_2" x1="-82.3516" y1="50.4333" x2="-74.4539" y2="233.296" gradientUnits="userSpaceOnUse">
<stop stop-color="#9FA0A6"/>
<stop offset="1" stop-color="white"/>
</linearGradient>
<linearGradient id="paint35_linear_6_2" x1="-83.5648" y1="50.6844" x2="-75.667" y2="233.548" gradientUnits="userSpaceOnUse">
<stop stop-color="#9FA0A6"/>
<stop offset="1" stop-color="white"/>
</linearGradient>
<linearGradient id="paint36_linear_6_2" x1="-84.7781" y1="50.9419" x2="-76.8803" y2="233.805" gradientUnits="userSpaceOnUse">
<stop stop-color="#9FA0A6"/>
<stop offset="1" stop-color="white"/>
</linearGradient>
<linearGradient id="paint37_linear_6_2" x1="-85.9913" y1="51.199" x2="-78.0936" y2="234.062" gradientUnits="userSpaceOnUse">
<stop stop-color="#9FA0A6"/>
<stop offset="1" stop-color="white"/>
</linearGradient>
<linearGradient id="paint38_linear_6_2" x1="-87.2045" y1="51.4561" x2="-79.3067" y2="234.32" gradientUnits="userSpaceOnUse">
<stop stop-color="#9FA0A6"/>
<stop offset="1" stop-color="white"/>
</linearGradient>
<linearGradient id="paint39_linear_6_2" x1="-88.4178" y1="51.7136" x2="-80.52" y2="234.576" gradientUnits="userSpaceOnUse">
<stop stop-color="#9FA0A6"/>
<stop offset="1" stop-color="white"/>
</linearGradient>
<linearGradient id="paint40_linear_6_2" x1="98.6879" y1="89.1759" x2="209.874" y2="166.334" gradientUnits="userSpaceOnUse">
<stop stop-color="#9FA0A6"/>
<stop offset="1" stop-color="white"/>
</linearGradient>
<linearGradient id="paint41_linear_6_2" x1="89.8296" y1="89.9039" x2="201.484" y2="170.647" gradientUnits="userSpaceOnUse">
<stop stop-color="#9FA0A6"/>
<stop offset="1" stop-color="white"/>
</linearGradient>
<linearGradient id="paint42_linear_6_2" x1="123.944" y1="1544.97" x2="162.965" y2="1545" gradientUnits="userSpaceOnUse">
<stop stop-color="#9FA0A6"/>
<stop offset="1" stop-color="white"/>
</linearGradient>
<linearGradient id="paint43_linear_6_2" x1="106.303" y1="10.038" x2="58.2713" y2="28.56" gradientUnits="userSpaceOnUse">
<stop stop-color="#F4F0E7"/>
<stop offset="0.000821821" stop-color="#F3EFE6"/>
<stop offset="0.283885" stop-color="#CFCAC4"/>
<stop offset="0.537644" stop-color="#DDD8D1"/>
<stop offset="1" stop-color="#F4F0E7"/>
</linearGradient>
<linearGradient id="paint44_linear_6_2" x1="83.0272" y1="7.96174" x2="77.9299" y2="27.0861" gradientUnits="userSpaceOnUse">
<stop stop-color="#F4F0E7"/>
<stop offset="0.000821821" stop-color="#F3EFE6"/>
<stop offset="0.283885" stop-color="#CFCAC4"/>
<stop offset="0.537644" stop-color="#DDD8D1"/>
<stop offset="1" stop-color="#F4F0E7"/>
</linearGradient>
<linearGradient id="paint45_linear_6_2" x1="82.8508" y1="32.8527" x2="90.6124" y2="21.2475" gradientUnits="userSpaceOnUse">
<stop stop-color="#E6E2D9"/>
<stop offset="1" stop-color="#9B9893"/>
</linearGradient>
<linearGradient id="paint46_linear_6_2" x1="94.5103" y1="35.6144" x2="103.334" y2="15.2568" gradientUnits="userSpaceOnUse">
<stop stop-color="#E6E2D9"/>
<stop offset="1" stop-color="#9B9893"/>
</linearGradient>
</defs>
</svg>
